# xmcd CD database file
#
# Track frame offsets:
#	150
#	22289
#	40810
#
# Disc length: 799 seconds
#
# Revision: 0
# Processed by: cddbd v1.5PL3 Copyright (c) Steve Scherf et al.
# Submitted via: CDex 1.51
#
DISCID=21031d03
DTITLE=ナポレナポレ - You See The Beautiful Road Behind
DYEAR=1900
DGENRE=Pop
TTITLE0=You See The Beautiful Road Behind
TTITLE1=心の鏡
TTITLE2=StarFish
EXTD=
EXTT0=
EXTT1=
EXTT2=
PLAYORDER=
